<?xml version="1.0" standalone="no"?>
<!DOCTYPE svg PUBLIC "-//W3C//DTD SVG 20010904//EN"
 "http://www.w3.org/TR/2001/REC-SVG-20010904/DTD/svg10.dtd">
<svg version="1.0" xmlns="http://www.w3.org/2000/svg"
 width="48.000000pt" height="48.000000pt" viewBox="0 0 48.000000 48.000000"
 preserveAspectRatio="xMidYMid meet">

<g transform="translate(0.000000,48.000000) scale(0.100000,-0.100000)"
fill="#000000" stroke="none">
<path d="M235 430 c-8 -12 20 -24 35 -15 6 3 8 11 5 16 -8 12 -32 12 -40 -1z"/>
<path d="M207 332 c-8 -2 -20 -16 -26 -33 l-10 -29 84 0 84 0 -10 30 c-6 17
-16 30 -22 31 -55 3 -86 4 -100 1z"/>
<path d="M20 155 l0 -95 40 0 40 0 0 95 0 95 -40 0 -40 0 0 -95z"/>
</g>
</svg>
